<?xml version="1.0" encoding="utf-8"?>
<!-- Generator: Adobe Illustrator 25.4.1, SVG Export Plug-In . SVG Version: 6.00 Build 0)  -->
<svg version="1.1" id="Layer_1" xmlns="http://www.w3.org/2000/svg" xmlns:xlink="http://www.w3.org/1999/xlink" x="0px" y="0px"
	 viewBox="0 0 499 39" style="enable-background:new 0 0 499 39;" xml:space="preserve">
<style type="text/css">
	.st0{fill:#005294;}
	.st1{fill-rule:evenodd;clip-rule:evenodd;fill:#004987;}
</style>
<g>
	<path class="st0" d="M172.45,9.4l-4.02,15.09h8.49l-1.05,3.94h-13.88l5.07-19.04H172.45z"/>
	<path class="st0" d="M186.55,26.92c-0.03,0.04-0.05,0.06-0.07,0.08c-0.02,0.04-0.04,0.07-0.07,0.09c-0.03,0.03-0.05,0.06-0.07,0.09
		c-0.05,0.05-0.11,0.11-0.17,0.16c-0.06,0.05-0.13,0.11-0.2,0.16c-0.19,0.18-0.43,0.35-0.7,0.51c-0.27,0.17-0.57,0.31-0.88,0.43
		c-0.33,0.14-0.69,0.25-1.08,0.32s-0.79,0.11-1.21,0.11c-0.86,0-1.57-0.08-2.13-0.24c-0.56-0.16-0.98-0.39-1.26-0.68
		c-0.28-0.32-0.48-0.65-0.6-1.01s-0.18-0.73-0.16-1.12c-0.02-0.12-0.02-0.25-0.01-0.37c0.01-0.12,0.03-0.25,0.07-0.37
		c0.02-0.09,0.04-0.17,0.05-0.25c0.02-0.08,0.03-0.15,0.05-0.22c0-0.03,0.01-0.07,0.03-0.12c0.02-0.04,0.03-0.08,0.03-0.12
		c0.3-0.93,0.77-1.7,1.42-2.33c0.65-0.62,1.47-1.07,2.47-1.35c1-0.3,2.04-0.52,3.12-0.67c1.08-0.15,2.19-0.22,3.33-0.22
		c0.09-0.35,0.16-0.68,0.21-1s0.09-0.6,0.11-0.87c0-0.26-0.09-0.46-0.26-0.6c-0.18-0.14-0.44-0.21-0.79-0.21
		c-0.28,0-0.53,0.04-0.74,0.12c-0.21,0.08-0.39,0.19-0.55,0.33c-0.18,0.16-0.32,0.32-0.42,0.47c-0.11,0.16-0.19,0.32-0.26,0.5
		c0,0.02-0.01,0.04-0.03,0.05c-0.02,0.02-0.03,0.04-0.03,0.05c-0.02,0.02-0.03,0.04-0.03,0.05c-0.02,0.04-0.04,0.07-0.05,0.09
		c-0.02,0.03-0.03,0.06-0.03,0.09c-0.02,0.05-0.03,0.11-0.04,0.16c-0.01,0.05-0.02,0.11-0.04,0.16l-4.97-0.05
		c0.21-0.75,0.55-1.41,1.01-1.96s1.06-0.99,1.8-1.33c0.72-0.35,1.5-0.61,2.34-0.78c0.84-0.17,1.73-0.25,2.66-0.25
		c0.82,0,1.57,0.08,2.25,0.24s1.28,0.39,1.83,0.71c0.53,0.32,0.89,0.71,1.08,1.17s0.21,1,0.05,1.62l-1.84,6.78
		c-0.02,0.09-0.04,0.17-0.05,0.24c-0.02,0.07-0.04,0.15-0.05,0.24c-0.04,0.14-0.07,0.29-0.1,0.46c-0.04,0.17-0.07,0.34-0.11,0.51
		c-0.07,0.26-0.11,0.54-0.12,0.82s0,0.56,0.04,0.84h-4.97c0-0.04,0-0.06,0-0.08c-0.02-0.03-0.03-0.08-0.03-0.13s0.01-0.11,0.03-0.18
		c0-0.07,0-0.14,0.01-0.22c0.01-0.08,0.02-0.17,0.04-0.28s0.04-0.22,0.07-0.34s0.06-0.25,0.09-0.37v-0.05
		C186.6,26.84,186.58,26.88,186.55,26.92z M187.5,22.3c-0.11,0.01-0.23,0.01-0.35,0.01s-0.24,0-0.35,0.01
		c-0.11,0.01-0.23,0.02-0.35,0.04c-0.21,0.02-0.42,0.05-0.62,0.09c-0.2,0.04-0.4,0.09-0.59,0.14c-0.1,0.02-0.21,0.04-0.3,0.08
		c-0.1,0.04-0.2,0.07-0.3,0.11c-0.28,0.1-0.51,0.24-0.7,0.39c-0.18,0.16-0.32,0.34-0.41,0.55c-0.02,0.02-0.03,0.04-0.04,0.05
		s-0.01,0.04-0.01,0.05c-0.02,0.02-0.03,0.03-0.03,0.04s0,0.02,0,0.04c-0.02,0.02-0.03,0.04-0.04,0.05
		c-0.01,0.02-0.01,0.04-0.01,0.05v0.03c-0.02,0.02-0.03,0.04-0.03,0.05c-0.07,0.23-0.08,0.45-0.04,0.66
		c0.04,0.21,0.14,0.41,0.28,0.6c0.14,0.19,0.31,0.34,0.5,0.43c0.19,0.1,0.41,0.14,0.66,0.14c0.11,0,0.22-0.01,0.34-0.03
		s0.25-0.05,0.37-0.11c0.1-0.04,0.22-0.09,0.35-0.16c0.13-0.07,0.26-0.16,0.38-0.26c0.17-0.14,0.33-0.28,0.46-0.43
		c0.13-0.15,0.24-0.31,0.33-0.49c0.11-0.17,0.2-0.35,0.29-0.53c0.09-0.17,0.17-0.35,0.24-0.53c0.02-0.05,0.04-0.1,0.05-0.14
		c0.02-0.04,0.03-0.09,0.05-0.14c0-0.04,0.01-0.08,0.03-0.13s0.04-0.11,0.05-0.16c0.04-0.09,0.06-0.18,0.08-0.28
		c0.02-0.1,0.03-0.19,0.05-0.28l0.03-0.05C187.73,22.27,187.61,22.29,187.5,22.3z"/>
	<path class="st0" d="M205.29,11.24l-1.05,3.94h2.89l-0.84,3.1h-2.89l-1.5,5.6c-0.1,0.39-0.16,0.7-0.17,0.95s0.04,0.43,0.14,0.55
		c0.09,0.12,0.21,0.21,0.37,0.26s0.35,0.08,0.58,0.08c0.09,0,0.17,0,0.25,0c0.08,0,0.17-0.01,0.28-0.03c0.09,0,0.17,0,0.26-0.01
		s0.18-0.02,0.29-0.04c0.02,0,0.03,0,0.05,0s0.04-0.01,0.05-0.03c0.02,0,0.04,0,0.05,0c0.02,0,0.03,0,0.05,0c0.02,0,0.03,0,0.05,0
		s0.04-0.01,0.05-0.03h0.03h0.03c0.02,0,0.03,0,0.04,0s0.02,0,0.04,0l-0.84,3.05c-0.14,0.02-0.29,0.03-0.43,0.05
		c-0.15,0.02-0.29,0.04-0.43,0.05c-0.16,0.02-0.31,0.04-0.46,0.05c-0.15,0.02-0.29,0.04-0.43,0.05c-0.28,0.04-0.56,0.06-0.84,0.07
		c-0.28,0.01-0.55,0.01-0.81,0.01c-0.67,0-1.26-0.06-1.79-0.18c-0.53-0.12-0.98-0.3-1.37-0.53c-0.39-0.25-0.63-0.6-0.74-1.08
		c-0.1-0.47-0.06-1.06,0.13-1.76l1.89-7.1h-2.47l0.84-3.1h2.47l0.55-2.08L205.29,11.24z"/>
	<path class="st0" d="M216.88,11.24l-1.05,3.94h2.89l-0.84,3.1h-2.89l-1.5,5.6c-0.1,0.39-0.16,0.7-0.17,0.95s0.04,0.43,0.14,0.55
		c0.09,0.12,0.21,0.21,0.37,0.26s0.35,0.08,0.58,0.08c0.09,0,0.17,0,0.25,0c0.08,0,0.17-0.01,0.28-0.03c0.09,0,0.17,0,0.26-0.01
		s0.18-0.02,0.29-0.04c0.02,0,0.03,0,0.05,0s0.04-0.01,0.05-0.03c0.02,0,0.04,0,0.05,0c0.02,0,0.03,0,0.05,0c0.02,0,0.03,0,0.05,0
		s0.04-0.01,0.05-0.03h0.03h0.03c0.02,0,0.03,0,0.04,0s0.02,0,0.04,0l-0.84,3.05c-0.14,0.02-0.29,0.03-0.43,0.05
		c-0.15,0.02-0.29,0.04-0.43,0.05c-0.16,0.02-0.31,0.04-0.46,0.05c-0.15,0.02-0.29,0.04-0.43,0.05c-0.28,0.04-0.56,0.06-0.84,0.07
		c-0.28,0.01-0.55,0.01-0.81,0.01c-0.67,0-1.26-0.06-1.79-0.18c-0.53-0.12-0.98-0.3-1.37-0.53c-0.39-0.25-0.63-0.6-0.74-1.08
		c-0.1-0.47-0.06-1.06,0.13-1.76l1.89-7.1h-2.47l0.84-3.1h2.47l0.55-2.08L216.88,11.24z"/>
	<path class="st0" d="M231.87,24.1c-0.32,0.81-0.73,1.5-1.24,2.09c-0.51,0.59-1.11,1.08-1.81,1.49c-0.7,0.39-1.48,0.68-2.33,0.88
		c-0.85,0.2-1.77,0.3-2.75,0.3c-1.24,0-2.29-0.14-3.13-0.41s-1.47-0.7-1.89-1.28c-0.44-0.58-0.69-1.31-0.75-2.2s0.07-1.92,0.41-3.12
		c0.3-1.09,0.71-2.06,1.25-2.92c0.53-0.86,1.21-1.6,2.01-2.23c0.81-0.63,1.68-1.1,2.63-1.42c0.95-0.32,1.96-0.47,3.05-0.47
		c1.4,0,2.52,0.2,3.37,0.6c0.84,0.4,1.41,1.02,1.71,1.84c0.28,0.81,0.42,1.7,0.41,2.67c-0.01,0.97-0.16,2.03-0.46,3.17l-9.52-0.05
		c0,0.07-0.01,0.14-0.04,0.21c-0.03,0.07-0.05,0.14-0.07,0.21c0,0.04,0,0.07-0.01,0.1c-0.01,0.04-0.02,0.07-0.04,0.11
		c-0.02,0.12-0.04,0.24-0.05,0.35c-0.02,0.11-0.03,0.23-0.03,0.36c0,0.21,0.03,0.41,0.08,0.59c0.05,0.18,0.14,0.36,0.26,0.54
		c0.1,0.17,0.27,0.3,0.5,0.38c0.23,0.08,0.52,0.12,0.87,0.12c0.03,0,0.07,0,0.1,0s0.07,0,0.11,0c0.02,0,0.03,0,0.05,0
		s0.04-0.01,0.05-0.03h0.03h0.03c0.02,0,0.03,0,0.04,0c0.01,0,0.02,0,0.04,0c0.23-0.03,0.46-0.1,0.7-0.18
		c0.24-0.09,0.47-0.21,0.7-0.37c0.25-0.16,0.45-0.34,0.6-0.55c0.16-0.21,0.27-0.46,0.34-0.74l0.03-0.05H231.87z M228.28,19.09
		c-0.03-0.32-0.13-0.6-0.3-0.83c-0.18-0.25-0.38-0.43-0.6-0.55c-0.23-0.12-0.49-0.18-0.79-0.18c-0.32,0-0.62,0.07-0.92,0.21
		c-0.3,0.14-0.6,0.34-0.89,0.6c-0.3,0.26-0.54,0.55-0.74,0.87c-0.19,0.32-0.33,0.65-0.42,1l4.55-0.05
		C228.27,19.77,228.31,19.42,228.28,19.09z"/>
	<path class="st0" d="M238.89,24.1c-0.02,0.07-0.03,0.13-0.04,0.17s-0.02,0.08-0.04,0.12s-0.03,0.08-0.03,0.12
		c0,0.04,0.01,0.08,0.03,0.12c0,0.18,0.03,0.35,0.08,0.51c0.05,0.17,0.12,0.32,0.21,0.46c0.09,0.14,0.21,0.25,0.37,0.32
		c0.16,0.07,0.34,0.1,0.55,0.1c0.11,0,0.21-0.01,0.3-0.03c0.1-0.02,0.19-0.03,0.28-0.05c0.09-0.03,0.18-0.07,0.28-0.12
		c0.1-0.04,0.2-0.09,0.3-0.14c0.19-0.12,0.35-0.25,0.46-0.39c0.11-0.14,0.19-0.29,0.22-0.45c0.02-0.02,0.03-0.04,0.03-0.05
		c0.02-0.02,0.03-0.04,0.03-0.05v-0.03c0-0.02,0-0.03,0-0.04s0-0.02,0-0.04c0-0.12-0.03-0.24-0.09-0.35
		c-0.06-0.11-0.14-0.23-0.25-0.36c-0.12-0.1-0.29-0.21-0.49-0.32c-0.2-0.1-0.44-0.2-0.72-0.29c-0.7-0.14-1.35-0.32-1.96-0.55
		c-0.6-0.23-1.18-0.48-1.72-0.76c-0.54-0.3-0.91-0.7-1.1-1.2c-0.19-0.5-0.22-1.11-0.08-1.83c0.02-0.02,0.03-0.04,0.03-0.07
		s0.01-0.05,0.03-0.07c0.02-0.05,0.04-0.1,0.05-0.14c0.02-0.04,0.03-0.09,0.05-0.14c0.02-0.05,0.04-0.11,0.07-0.17
		c0.03-0.06,0.06-0.13,0.09-0.2c0-0.02,0-0.03,0.01-0.05c0.01-0.02,0.02-0.04,0.04-0.05c0.21-0.4,0.52-0.79,0.92-1.17
		c0.4-0.38,0.88-0.73,1.45-1.06c0.56-0.35,1.23-0.61,2.01-0.78c0.78-0.17,1.65-0.25,2.62-0.25c0.96,0,1.77,0.07,2.43,0.21
		s1.16,0.34,1.51,0.6c0.35,0.26,0.63,0.54,0.84,0.84c0.21,0.3,0.34,0.6,0.39,0.92c0.03,0.18,0.05,0.34,0.05,0.5
		s-0.02,0.32-0.05,0.47c-0.02,0.16-0.04,0.3-0.07,0.43c-0.03,0.13-0.06,0.26-0.09,0.38l-4.76-0.05c0.05-0.18,0.07-0.35,0.04-0.53
		s-0.08-0.32-0.17-0.45c-0.12-0.14-0.26-0.25-0.41-0.32c-0.15-0.07-0.32-0.1-0.51-0.1c-0.18,0-0.35,0.03-0.51,0.08
		c-0.17,0.05-0.33,0.12-0.49,0.21c-0.16,0.09-0.29,0.18-0.38,0.29c-0.1,0.1-0.16,0.22-0.2,0.34c0,0.02,0,0.03,0,0.04
		c0,0.01,0,0.02,0,0.04c-0.02,0.02-0.03,0.04-0.03,0.08c-0.02,0.1,0,0.2,0.04,0.29c0.04,0.09,0.11,0.18,0.2,0.26
		c0.11,0.07,0.24,0.15,0.41,0.22c0.17,0.08,0.36,0.14,0.59,0.2c0.09,0.02,0.17,0.04,0.26,0.07c0.09,0.03,0.18,0.06,0.26,0.09
		c0.05,0.02,0.1,0.03,0.16,0.04c0.05,0.01,0.1,0.01,0.13,0.01c0.05,0.02,0.1,0.03,0.14,0.04c0.04,0.01,0.09,0.02,0.14,0.04
		c0.67,0.18,1.28,0.38,1.83,0.61c0.55,0.23,1.05,0.47,1.49,0.74c0.46,0.28,0.74,0.68,0.87,1.2c0.12,0.52,0.08,1.16-0.13,1.93
		c-0.21,0.79-0.54,1.46-0.99,2.01c-0.45,0.55-1.01,1-1.7,1.33s-1.47,0.58-2.35,0.74c-0.89,0.16-1.87,0.24-2.96,0.24
		c-1.24,0-2.24-0.11-3-0.33c-0.75-0.22-1.26-0.56-1.52-1.01c-0.26-0.46-0.41-0.96-0.45-1.53c-0.04-0.56,0.03-1.17,0.21-1.84
		l0.03-0.05H238.89z"/>
	<path class="st0" d="M261.66,9.4c2.17,0.04,3.92,0.29,5.25,0.78c1.32,0.48,2.23,1.21,2.72,2.17c0.47,0.96,0.75,2.01,0.83,3.13
		c0.08,1.12-0.05,2.31-0.38,3.58c0,0.02,0,0.04,0,0.08c-0.02,0.02-0.03,0.04-0.03,0.05s0,0.04,0,0.05c0,0.02-0.01,0.04-0.03,0.08
		c-0.02,0.02-0.03,0.04-0.03,0.05c0,0.02,0,0.04,0,0.05c-0.02,0.04-0.04,0.07-0.05,0.11s-0.03,0.07-0.03,0.1
		c-0.02,0.02-0.03,0.04-0.04,0.07c-0.01,0.03-0.01,0.06-0.01,0.09c-0.46,1.51-1.07,2.81-1.85,3.92c-0.78,1.1-1.71,2-2.8,2.68
		c-1.12,0.7-2.22,1.22-3.3,1.55s-2.16,0.5-3.25,0.5h-10.15l5.07-19.04H261.66z M257.58,24.71c0.86,0.04,1.64-0.07,2.35-0.33
		c0.71-0.25,1.35-0.64,1.93-1.17c0.58-0.53,1.07-1.08,1.47-1.66s0.71-1.18,0.92-1.81c0-0.02,0-0.03,0.01-0.05s0.02-0.04,0.04-0.08
		c0.02-0.02,0.03-0.04,0.04-0.07c0.01-0.03,0.01-0.05,0.01-0.07c0-0.04,0-0.06,0.01-0.08c0.01-0.02,0.02-0.04,0.04-0.08
		c0-0.02,0-0.04,0.01-0.07s0.01-0.05,0.01-0.07c0.02-0.04,0.03-0.07,0.04-0.11c0.01-0.03,0.01-0.08,0.01-0.13
		c0-0.04,0-0.07,0.01-0.11c0.01-0.03,0.02-0.07,0.04-0.1c0.02-0.09,0.03-0.17,0.04-0.25c0.01-0.08,0.01-0.15,0.01-0.22
		c0.07-0.61,0.04-1.2-0.09-1.76c-0.13-0.56-0.35-1.1-0.64-1.6c-0.33-0.51-0.75-0.89-1.26-1.14c-0.51-0.25-1.1-0.38-1.79-0.38
		l-2.87-0.05l-3.05,11.39H257.58z"/>
	<path class="st0" d="M278.68,26.92c-0.03,0.04-0.05,0.06-0.07,0.08c-0.02,0.04-0.04,0.07-0.07,0.09s-0.05,0.06-0.07,0.09
		c-0.05,0.05-0.11,0.11-0.17,0.16c-0.06,0.05-0.13,0.11-0.2,0.16c-0.19,0.18-0.43,0.35-0.7,0.51c-0.27,0.17-0.57,0.31-0.88,0.43
		c-0.33,0.14-0.69,0.25-1.08,0.32s-0.79,0.11-1.21,0.11c-0.86,0-1.57-0.08-2.13-0.24c-0.56-0.16-0.98-0.39-1.26-0.68
		c-0.28-0.32-0.48-0.65-0.61-1.01c-0.12-0.36-0.17-0.73-0.16-1.12c-0.02-0.12-0.02-0.25-0.01-0.37c0.01-0.12,0.03-0.25,0.07-0.37
		c0.02-0.09,0.04-0.17,0.05-0.25c0.02-0.08,0.03-0.15,0.05-0.22c0-0.03,0.01-0.07,0.03-0.12c0.02-0.04,0.03-0.08,0.03-0.12
		c0.3-0.93,0.77-1.7,1.42-2.33c0.65-0.62,1.47-1.07,2.47-1.35c1-0.3,2.04-0.52,3.12-0.67c1.08-0.15,2.19-0.22,3.33-0.22
		c0.09-0.35,0.16-0.68,0.21-1s0.09-0.6,0.11-0.87c0-0.26-0.09-0.46-0.26-0.6c-0.17-0.14-0.44-0.21-0.79-0.21
		c-0.28,0-0.53,0.04-0.74,0.12c-0.21,0.08-0.39,0.19-0.55,0.33c-0.17,0.16-0.32,0.32-0.42,0.47c-0.11,0.16-0.19,0.32-0.26,0.5
		c0,0.02-0.01,0.04-0.03,0.05c-0.02,0.02-0.03,0.04-0.03,0.05c-0.02,0.02-0.03,0.04-0.03,0.05c-0.02,0.04-0.04,0.07-0.05,0.09
		c-0.02,0.03-0.03,0.06-0.03,0.09c-0.02,0.05-0.03,0.11-0.04,0.16c-0.01,0.05-0.02,0.11-0.04,0.16l-4.97-0.05
		c0.21-0.75,0.55-1.41,1.01-1.96c0.46-0.55,1.06-0.99,1.8-1.33c0.72-0.35,1.5-0.61,2.34-0.78c0.84-0.17,1.73-0.25,2.66-0.25
		c0.82,0,1.57,0.08,2.25,0.24s1.28,0.39,1.83,0.71c0.53,0.32,0.88,0.71,1.08,1.17c0.19,0.46,0.21,1,0.05,1.62l-1.84,6.78
		c-0.02,0.09-0.04,0.17-0.05,0.24c-0.02,0.07-0.04,0.15-0.05,0.24c-0.04,0.14-0.07,0.29-0.1,0.46c-0.04,0.17-0.07,0.34-0.11,0.51
		c-0.07,0.26-0.11,0.54-0.12,0.82s0,0.56,0.04,0.84h-4.97c0-0.04,0-0.06,0-0.08c-0.02-0.03-0.03-0.08-0.03-0.13s0.01-0.11,0.03-0.18
		c0-0.07,0-0.14,0.01-0.22c0.01-0.08,0.02-0.17,0.04-0.28s0.04-0.22,0.07-0.34s0.06-0.25,0.09-0.37v-0.05
		C278.73,26.84,278.71,26.88,278.68,26.92z M279.63,22.3c-0.11,0.01-0.23,0.01-0.36,0.01c-0.12,0-0.24,0-0.35,0.01
		c-0.11,0.01-0.23,0.02-0.36,0.04c-0.21,0.02-0.42,0.05-0.62,0.09c-0.2,0.04-0.4,0.09-0.59,0.14c-0.11,0.02-0.21,0.04-0.3,0.08
		s-0.2,0.07-0.3,0.11c-0.28,0.1-0.51,0.24-0.7,0.39c-0.18,0.16-0.32,0.34-0.41,0.55c-0.02,0.02-0.03,0.04-0.04,0.05
		s-0.01,0.04-0.01,0.05c-0.02,0.02-0.03,0.03-0.03,0.04s0,0.02,0,0.04c-0.02,0.02-0.03,0.04-0.04,0.05
		c-0.01,0.02-0.01,0.04-0.01,0.05v0.03c-0.02,0.02-0.03,0.04-0.03,0.05c-0.07,0.23-0.08,0.45-0.04,0.66
		c0.04,0.21,0.14,0.41,0.28,0.6c0.14,0.19,0.31,0.34,0.5,0.43c0.19,0.1,0.41,0.14,0.66,0.14c0.11,0,0.22-0.01,0.34-0.03
		c0.12-0.02,0.25-0.05,0.37-0.11c0.11-0.04,0.22-0.09,0.36-0.16c0.13-0.07,0.26-0.16,0.38-0.26c0.17-0.14,0.33-0.28,0.46-0.43
		c0.13-0.15,0.24-0.31,0.33-0.49c0.11-0.17,0.2-0.35,0.29-0.53c0.09-0.17,0.17-0.35,0.24-0.53c0.02-0.05,0.04-0.1,0.05-0.14
		s0.04-0.09,0.05-0.14c0-0.04,0.01-0.08,0.03-0.13s0.04-0.11,0.05-0.16c0.04-0.09,0.06-0.18,0.08-0.28c0.02-0.1,0.03-0.19,0.05-0.28
		l0.03-0.05C279.86,22.27,279.74,22.29,279.63,22.3z"/>
	<path class="st0" d="M297.42,11.24l-1.05,3.94h2.89l-0.84,3.1h-2.89l-1.5,5.6c-0.11,0.39-0.16,0.7-0.17,0.95s0.04,0.43,0.14,0.55
		c0.09,0.12,0.21,0.21,0.37,0.26c0.16,0.05,0.35,0.08,0.58,0.08c0.09,0,0.17,0,0.25,0s0.17-0.01,0.28-0.03c0.09,0,0.17,0,0.26-0.01
		s0.18-0.02,0.29-0.04c0.02,0,0.04,0,0.05,0s0.04-0.01,0.05-0.03c0.02,0,0.04,0,0.05,0c0.02,0,0.03,0,0.05,0c0.02,0,0.03,0,0.05,0
		s0.04-0.01,0.05-0.03h0.03h0.03c0.02,0,0.03,0,0.04,0s0.02,0,0.04,0l-0.84,3.05c-0.14,0.02-0.29,0.03-0.43,0.05
		c-0.15,0.02-0.29,0.04-0.43,0.05c-0.16,0.02-0.31,0.04-0.46,0.05c-0.15,0.02-0.29,0.04-0.43,0.05c-0.28,0.04-0.56,0.06-0.84,0.07
		c-0.28,0.01-0.55,0.01-0.82,0.01c-0.67,0-1.26-0.06-1.79-0.18c-0.53-0.12-0.98-0.3-1.37-0.53c-0.39-0.25-0.63-0.6-0.74-1.08
		c-0.1-0.47-0.06-1.06,0.13-1.76l1.89-7.1h-2.47l0.84-3.1h2.47l0.55-2.08L297.42,11.24z"/>
	<path class="st0" d="M306.42,26.92c-0.03,0.04-0.05,0.06-0.07,0.08c-0.02,0.04-0.04,0.07-0.07,0.09c-0.03,0.03-0.05,0.06-0.07,0.09
		c-0.05,0.05-0.11,0.11-0.17,0.16c-0.06,0.05-0.13,0.11-0.2,0.16c-0.19,0.18-0.42,0.35-0.7,0.51c-0.27,0.17-0.57,0.31-0.88,0.43
		c-0.33,0.14-0.69,0.25-1.08,0.32s-0.79,0.11-1.21,0.11c-0.86,0-1.57-0.08-2.13-0.24c-0.56-0.16-0.98-0.39-1.26-0.68
		c-0.28-0.32-0.48-0.65-0.6-1.01c-0.12-0.36-0.18-0.73-0.16-1.12c-0.02-0.12-0.02-0.25-0.01-0.37c0.01-0.12,0.03-0.25,0.07-0.37
		c0.02-0.09,0.04-0.17,0.05-0.25s0.04-0.15,0.05-0.22c0-0.03,0.01-0.07,0.03-0.12c0.02-0.04,0.03-0.08,0.03-0.12
		c0.3-0.93,0.77-1.7,1.42-2.33c0.65-0.62,1.47-1.07,2.47-1.35c1-0.3,2.04-0.52,3.12-0.67c1.08-0.15,2.19-0.22,3.33-0.22
		c0.09-0.35,0.16-0.68,0.21-1s0.09-0.6,0.11-0.87c0-0.26-0.09-0.46-0.26-0.6c-0.18-0.14-0.44-0.21-0.79-0.21
		c-0.28,0-0.53,0.04-0.74,0.12c-0.21,0.08-0.39,0.19-0.55,0.33c-0.18,0.16-0.32,0.32-0.42,0.47s-0.19,0.32-0.26,0.5
		c0,0.02-0.01,0.04-0.03,0.05c-0.02,0.02-0.03,0.04-0.03,0.05c-0.02,0.02-0.03,0.04-0.03,0.05c-0.02,0.04-0.04,0.07-0.05,0.09
		s-0.03,0.06-0.03,0.09c-0.02,0.05-0.03,0.11-0.04,0.16c-0.01,0.05-0.02,0.11-0.04,0.16l-4.97-0.05c0.21-0.75,0.55-1.41,1.01-1.96
		c0.46-0.55,1.07-0.99,1.8-1.33c0.72-0.35,1.5-0.61,2.34-0.78c0.84-0.17,1.73-0.25,2.66-0.25c0.82,0,1.57,0.08,2.25,0.24
		s1.28,0.39,1.83,0.71c0.53,0.32,0.89,0.71,1.08,1.17c0.19,0.46,0.21,1,0.05,1.62l-1.84,6.78c-0.02,0.09-0.04,0.17-0.05,0.24
		c-0.02,0.07-0.04,0.15-0.05,0.24c-0.04,0.14-0.07,0.29-0.11,0.46c-0.04,0.17-0.07,0.34-0.11,0.51c-0.07,0.26-0.11,0.54-0.12,0.82
		s0,0.56,0.04,0.84h-4.97c0-0.04,0-0.06,0-0.08c-0.02-0.03-0.03-0.08-0.03-0.13s0.01-0.11,0.03-0.18c0-0.07,0-0.14,0.01-0.22
		c0.01-0.08,0.02-0.17,0.04-0.28s0.04-0.22,0.07-0.34s0.06-0.25,0.09-0.37v-0.05C306.47,26.84,306.45,26.88,306.42,26.92z
		 M307.37,22.3c-0.11,0.01-0.23,0.01-0.35,0.01c-0.12,0-0.24,0-0.36,0.01c-0.11,0.01-0.23,0.02-0.35,0.04
		c-0.21,0.02-0.42,0.05-0.62,0.09s-0.4,0.09-0.59,0.14c-0.1,0.02-0.21,0.04-0.3,0.08c-0.1,0.04-0.2,0.07-0.3,0.11
		c-0.28,0.1-0.51,0.24-0.7,0.39c-0.18,0.16-0.32,0.34-0.41,0.55c-0.02,0.02-0.03,0.04-0.04,0.05s-0.01,0.04-0.01,0.05
		c-0.02,0.02-0.03,0.03-0.03,0.04s0,0.02,0,0.04c-0.02,0.02-0.03,0.04-0.04,0.05c-0.01,0.02-0.01,0.04-0.01,0.05v0.03
		c-0.02,0.02-0.03,0.04-0.03,0.05c-0.07,0.23-0.08,0.45-0.04,0.66c0.04,0.21,0.14,0.41,0.28,0.6c0.14,0.19,0.31,0.34,0.5,0.43
		c0.19,0.1,0.41,0.14,0.66,0.14c0.11,0,0.22-0.01,0.34-0.03c0.12-0.02,0.25-0.05,0.37-0.11c0.1-0.04,0.22-0.09,0.35-0.16
		c0.13-0.07,0.26-0.16,0.38-0.26c0.17-0.14,0.33-0.28,0.46-0.43c0.13-0.15,0.24-0.31,0.33-0.49c0.11-0.17,0.2-0.35,0.29-0.53
		c0.09-0.17,0.17-0.35,0.24-0.53c0.02-0.05,0.04-0.1,0.05-0.14c0.02-0.04,0.03-0.09,0.05-0.14c0-0.04,0.01-0.08,0.03-0.13
		s0.04-0.11,0.05-0.16c0.04-0.09,0.06-0.18,0.08-0.28s0.04-0.19,0.05-0.28l0.03-0.05C307.6,22.27,307.48,22.29,307.37,22.3z"/>
</g>
<g>
	<path class="st1" d="M29.15,13.25c0.57,2.21,0.49,3.48,0.08,5.2c-0.49,1.97-1.56,3.48-2.58,4.34l3.69,12.57h-3.69
		c-1.19-4.63-2.7-9.71-3.93-14.21c0.74-0.45,2.83-1.6,3.11-4.38c0.33-2.58-1.27-4.63-2.38-5.37c-0.98-0.61-2.42-1.02-3.77-0.78
		c-2.58,0.29-4.3,2.33-4.75,4.55c-0.04,0.29-0.04,0.41-0.04,0.86c0,0-1.07,2.83-1.35,3.69h0.74v7.33H23l1.06,3.65H10.63v-8.19
		l-1.84-0.08c0.7-1.97,2.42-6.39,2.42-6.39c0.16-1.6,0.29-4.67,3.56-7.21c1.47-1.27,3.89-2.13,6.39-1.88
		C25.42,7.43,28.17,10.3,29.15,13.25L29.15,13.25z M32.83,10.01c2.66,5.82,0.94,11.39-1.02,14.01l2.99,11.22h-3.56l-3.48-12.08
		c2.13-2.09,3.56-6.31,2.46-9.79c-0.94-3.48-3.89-6.51-7.99-7.29c-4.51-0.94-8.68,1.35-10.49,4.46c-1.15,1.8-1.35,3.44-1.52,5.49
		c0,0-2.21,5.37-3.03,7.33h2.42v8.23h14.7l1.02,3.73H5.96v-8.77h-4.1c0,0,4.46-10.2,4.42-10.53c0.29-3.65,1.88-8.07,5.32-10.77
		c1.72-1.35,4.06-2.62,7.21-2.95c3.4-0.37,4.87,0.25,7.09,1.07C29.72,4.98,32.3,8.58,32.83,10.01L32.83,10.01z M16.78,16.16
		c0-2.05,1.64-3.65,3.6-3.65c2.01,0,3.6,1.6,3.6,3.65c0,1.97-1.6,3.56-3.6,3.56C18.42,19.72,16.78,18.12,16.78,16.16L16.78,16.16z
		 M37.42,23.06c0-0.7,0-1.43,0.12-2.21c0.12-0.86,0.29-1.68,0.53-2.54c0.57-1.84,1.68-3.56,3.32-5.16c1.6-1.6,4.06-2.42,7.37-2.46
		c0.37,0,0.82,0,1.23,0c0.45,0.04,0.94,0.12,1.35,0.16c1.31,0.2,2.5,0.57,3.6,1.23c1.02,0.61,1.6,1.68,1.6,3.15
		c0,0.25,0,0.41,0,0.66c-0.08,0.25-0.12,0.49-0.2,0.74h-5.61c0.08-0.12,0.08-0.16,0.08-0.29c0-0.08,0-0.12,0-0.25
		c0-0.57-0.2-1.07-0.49-1.31c-0.37-0.29-0.74-0.49-1.19-0.61c-0.16-0.04-0.41-0.04-0.61-0.12c-0.16,0-0.37,0-0.53,0
		c-0.12,0-0.33,0-0.45,0.08c-0.16,0-0.29,0.04-0.49,0.04c-0.74,0.25-1.47,0.82-2.21,1.72c-0.66,0.94-1.23,2.38-1.64,4.14
		c0,0.2-0.08,0.33-0.08,0.49c-0.04,0.12-0.04,0.33-0.04,0.45c-0.08,0.37-0.12,0.66-0.12,0.98c-0.08,0.29-0.08,0.53-0.08,0.86
		c0,0.98,0.2,1.76,0.57,2.46c0.41,0.66,1.11,1.02,2.13,1.02c0.12,0,0.2,0,0.33,0c0.04,0,0.16-0.04,0.29-0.04c0.2,0,0.33,0,0.49-0.08
		c0.2-0.04,0.37-0.12,0.61-0.16c0.49-0.25,0.94-0.57,1.35-0.98c0.45-0.49,0.7-0.98,0.74-1.56l5.37-0.04
		c0.08,0.04,0.08,0.12,0.08,0.16c0,0,0,0.08,0,0.12c0,0.33-0.12,0.74-0.33,1.23c-0.25,0.57-0.61,1.19-1.11,1.72
		c-0.7,0.82-1.72,1.56-3.03,2.29c-1.35,0.7-3.07,1.06-5.16,1.06c-0.04,0-0.12,0-0.16,0c-0.08,0-0.2,0-0.25,0
		c-2.83,0-4.75-0.61-5.73-1.8c-0.9-1.15-1.47-2.42-1.64-3.81c0-0.25,0-0.45,0-0.7C37.42,23.46,37.42,23.3,37.42,23.06L37.42,23.06
		L37.42,23.06z M58.93,11.22h7.37l3.24,13.19l2.99-13.19h4.79l-3.97,18.35h-7.21L62.7,15.64l-2.78,13.93h-4.79L58.93,11.22
		L58.93,11.22z M79.6,11.22h8.56c0.25,0.08,0.41,0.08,0.66,0.08c0.25,0,0.45,0,0.7,0c1.27,0.12,2.5,0.41,3.6,1.02
		c1.1,0.61,1.68,1.72,1.68,3.32c0,2.74-0.86,4.63-2.58,5.86c-1.72,1.19-3.77,1.72-6.02,1.72h-3.85L81,29.57h-5.2L79.6,11.22
		L79.6,11.22z M85.99,19.61c0.74,0.04,1.43-0.2,1.97-0.7c0.57-0.49,0.94-0.98,1.11-1.6c0-0.08,0.08-0.2,0.08-0.33
		c0-0.04,0-0.16,0-0.29c0-0.45-0.2-0.82-0.57-1.19c-0.29-0.29-0.9-0.49-1.76-0.49h-2.66l-0.98,4.59H85.99L85.99,19.61z M93.65,24.82
		c0-0.37,0-0.74,0.04-1.11c0.08-0.37,0.12-0.78,0.25-1.23c0.33-1.47,1.07-2.87,2.09-4.18c1.11-1.31,2.7-1.97,5-2.05
		c0.66,0,1.23,0.12,1.8,0.49c0.49,0.37,0.9,0.82,1.27,1.27c0.08,0.04,0.12,0.12,0.12,0.25c0.08,0.04,0.12,0.12,0.2,0.16l0.41-1.6
		h4.79l-3.81,17.74h-4.79l1.35-6.76c-0.33,0.37-0.61,0.74-0.94,0.98c-0.29,0.25-0.61,0.49-0.86,0.66c-0.41,0.2-0.78,0.33-1.23,0.45
		c-0.37,0.04-0.86,0.12-1.35,0.12c-1.52,0-2.58-0.37-3.19-1.11c-0.53-0.7-0.9-1.47-1.02-2.25c-0.08-0.29-0.12-0.61-0.12-0.9
		C93.65,25.43,93.65,25.14,93.65,24.82L93.65,24.82L93.65,24.82z M98.81,23.42c-0.08,0.16-0.08,0.29-0.12,0.41
		c0,0.12,0,0.25-0.08,0.37c0,0.12,0,0.25,0,0.45c0,0.12-0.04,0.25-0.04,0.37c0,0.53,0.12,1.02,0.37,1.39
		c0.25,0.41,0.66,0.57,1.23,0.57c0.74,0,1.35-0.16,1.84-0.61c0.53-0.45,0.98-1.43,1.35-2.91c0.12-0.25,0.2-0.53,0.25-0.86
		c0-0.29,0.08-0.61,0.08-0.9c0-0.61-0.21-1.19-0.45-1.68c-0.24-0.49-0.74-0.74-1.47-0.74c-0.61,0-1.19,0.25-1.6,0.74
		c-0.45,0.57-0.74,1.11-0.94,1.72c-0.12,0.33-0.25,0.61-0.29,0.94c-0.08,0.29-0.12,0.53-0.12,0.78V23.42L98.81,23.42z"/>
</g>
</svg>
