<svg id="Camada_1" data-name="Camada 1" xmlns="http://www.w3.org/2000/svg" viewBox="0 0 246.79 39.42"><defs><style>.cls-1{fill:#221e1f;}</style></defs><path class="cls-1" d="M181.69,1.61a.81.81,0,1,0,0-1.61H170.55a.81.81,0,1,0,0,1.61h4.77v36.2h-4.77a.81.81,0,1,0,0,1.61h11.14a.81.81,0,1,0,0-1.61h-4.76V1.61Z"/><path class="cls-1" d="M55.1,37.71H50L29.34,1.61h4.19a.81.81,0,0,0,0-1.61H22.38a.81.81,0,0,0,0,1.61h4.19L5.92,37.71H.81a.81.81,0,1,0,0,1.61H12a.81.81,0,1,0,0-1.61H7.77L15,25.14H41l7.19,12.57H44a.81.81,0,1,0,0,1.61H55.1a.81.81,0,1,0,0-1.61ZM15.88,23.53,28,2.43,40,23.53Z"/><path class="cls-1" d="M246,37.71h-5.11l-21-36.1h4.17a.81.81,0,0,0,0-1.61H212.93a.81.81,0,0,0,0,1.61h4.2L196.8,37.71h-5.11a.81.81,0,0,0,0,1.61h11.15a.81.81,0,0,0,0-1.61h-4.19l7.08-12.57h26L239,37.71h-4.18a.81.81,0,0,0,0,1.61H246a.81.81,0,0,0,0-1.61ZM206.63,23.53l11.89-21.1,12.26,21.1Z"/><path class="cls-1" d="M103.36,32.91a.8.8,0,0,0-.81.8v4.1H72V1.61h4.76a.81.81,0,0,0,0-1.61H65.58a.81.81,0,0,0,0,1.61h4.78v36.1H65.58a.81.81,0,0,0,0,1.61h5.48l.1.1h32.2l.8-.81v-4.9A.8.8,0,0,0,103.36,32.91Z"/><path class="cls-1" d="M116.61,0a.81.81,0,0,0,0,1.61h4.78v36.2h-4.78a.81.81,0,0,0,0,1.61h37.78l.8-.81v-4.9a.81.81,0,0,0-1.61,0v4.1H123V20.29h16.47v3.35a.81.81,0,0,0,1.61,0V15.79a.81.81,0,0,0-1.61,0v2.89H123V1.61h30.58v4.1a.81.81,0,0,0,1.61,0V.8l-.8-.8Z"/></svg>